<svg xmlns="http://www.w3.org/2000/svg" width="62" height="300"><path fill="#F40" d="M28.605 62.926c-5.66 1.26-9.615 5.913-10.077 11.813-.052.72-.16 1.32-.238 1.32-.24 0-.764 1.02-.764 1.48 0 .23-.114.62-.254.83-.19.29-.24.67-.19 1.54l.06 1.16-1 1.34c-2.46 3.21-3.415 6.68-2.68 9.55.333 1.26.542 1.46 1.195 1.21.51-.21 1.835-1.58 2.122-2.19.15-.38.43-.49.43-.15 0 .38.96 2.25 1.67 3.29.4.56.68 1.04.66 1.06-.03.05-.34.23-.69.38-1.32.68-1.9 1.64-1.9 3.32-.03.58.07.93.3 1.26.18.25.38.58.48.75.56.94 1.57 1.41 3.7 1.75 1.59.22 2.68.13 5.82-.51 3.17-.62 4.48-.62 7.8.02 4.66.93 7.5.62 8.99-.95 1.1-1.22 1.43-2.21 1.06-3.14-.13-.3-.2-.59-.16-.61.03-.05-.05-.3-.18-.58-.31-.56-1.07-1.19-1.9-1.54l-.59-.24.83-1.24c.45-.69 1.04-1.75 1.29-2.39l.43-1.17.58.91c.62.95 1.47 1.85 1.94 2 .68.25 1.23-1.14 1.36-3.32.06-1.143.02-1.73-.25-2.8-.39-1.58-1.64-4.143-2.62-5.48-.69-.91-.69-.91-.53-1.75.18-1.083-.07-2.38-.68-3.37-.39-.58-.51-1.04-.65-2.123-.58-5.21-4.23-9.576-9.32-11.196-1.47-.48-4.59-.58-6.21-.22l.11-.09.01.004.04.06zm6.875 5.737c.7.466 1.21 1.564 1.31 2.756.25 3.7-2.616 5.44-4.147 2.5-.522-.98-.51-3.08.02-4.13.61-1.26 1.87-1.76 2.83-1.14l-.013.01zm-6.7.16c.718.48 1.23 1.562 1.31 2.838.074 1.44-.16 2.35-.86 3.11-.634.74-1.294.92-2.024.61-1.148-.48-1.75-1.64-1.75-3.44 0-1.34.377-2.33 1.132-2.96.52-.43 1.603-.48 2.194-.1v-.04l-.002-.01zm6.895 7.7c2.07.526 4.334 1.69 4.334 2.247 0 .306-1.41 1.198-2.28 1.436-.51.158-.5.11.16-.767.57-.77.33-.79-.64-.05-3.54 2.66-7.82 2.72-11.26.14-.49-.33-.9-.58-.93-.56-.05.05.08.35.27.65.19.33.3.63.25.68-.11.12-1.44-.46-2.03-.89-.27-.18-.47-.46-.47-.63 0-.66 2.9-1.98 5.4-2.46 1.72-.33 5.42-.21 7.17.22l-.01-.05.025.03zm-10.302 5.573c1.343.47 3.673.822 5.346.822 1.01 0 1.49.06 1.49.188 0 .252-3.15.077-4.87-.252-1.37-.252-2.76-.683-2.99-.886-.26-.23.07-.178 1.06.152l-.05-.024h.01zm9.15.82c-.256.063-.863.11-1.347.11h-.862l.965-.11c.52-.06 1.13-.112 1.35-.112.35-.015.35 0-.08.113h-.05.013zM21.65 85.272c.124.08.1.646-.13 2.196-.378 2.573-.3 3.563.38 4.302.61.684 1.674 1.09 2.99 1.09 2.204.025 2.407-.253 2.407-3.357v-2.035l1.317.125c4.816.512 9.453-.482 12.85-2.745.48-.328.937-.505.984-.457.606.59.812 4.48.38 6.21-1.266 4.92-5.65 8.39-10.916 8.65-3.702.18-6.718-.96-9.25-3.47-1.9-1.92-3.017-4.18-3.27-6.8-.098-1.22.13-3.31.508-4.2l.228-.53.685.41.887.52-.05.11v-.01zm-1.373 10.68c.126.152.48.43.785.633s.837.633 1.207.984c.35.35 1.16 1.03 1.78 1.54.83.67 1.17 1.04 1.17 1.29 0 .48-.31.57-2.21.57-2.63 0-4.64-.74-5.17-1.85-.18-.37-.13-.52.22-1.19.38-.74.4-.79.12-.87-.41-.13-.23-.43.5-.96.65-.45 1.31-.51 1.62-.15l-.06-.03.03.03zm23.057-.025c.89.47 1.242 1.217.56 1.217-.227 0-.227.05.028.32.164.174.323.652.37 1.083.063.717.03.8-.508 1.276-.896.78-2.077 1.068-4.37 1.034-1.47 0-2.04-.06-2.204-.24-.33-.302.048-.788 1.183-1.42 1.42-.81 1.98-1.24 2.153-1.595.104-.174.38-.378.66-.48.304-.075.633-.328.938-.76.48-.71.558-.736 1.162-.405l.03-.03h-.002zm-9.906-24.993c-.38.416-.617 1.166-.505 1.595.124.52.433.36.634-.38.213-.79.816-.98.96-.32l.16.81c.157.71.478.32.478-.59-.014-.69-.084-.89-.38-1.15-.466-.38-1.01-.38-1.343-.03l-.002.04h-.002v.02zm-5.435-.143c-.622.69-.577 2.01.093 2.49.495.34.717.31 1.168-.16.302-.28.396-.56.396-1.11 0-1.2-1.015-1.93-1.673-1.21h.016v-.01zm1.097.99c0 .45-.48.6-.635.21-.125-.3.18-.75.43-.65.103.04.18.23.18.45h.024v-.01zm12.907 62.37c-2.144 0-3.88 1.75-3.88 3.89s1.736 3.88 3.88 3.88c2.146 0 3.885-1.74 3.885-3.88s-1.745-3.88-3.885-3.88v-.01zm-22 0c-2.145 0-3.886 1.75-3.886 3.89s1.75 3.88 3.89 3.88 3.88-1.74 3.88-3.88-1.74-3.88-3.88-3.88v-.01zm10.992-7.76c-3.17 0-5.75 2.58-5.75 5.75s2.57 5.75 5.74 5.75c3.16 0 5.75-2.58 5.75-5.74s-2.58-5.74-5.75-5.74l.01-.02zm17.21 34.42h-6.78v-12.39c0-1.7-.45-3.29-1.19-4.71.55-.16 1.14-.28 1.75-.28 3.42 0 6.21 2.79 6.21 6.21v11.18zm-27.64-12.4v12.4h-6.77v-11.18c0-3.42 2.78-6.2 6.2-6.2.61 0 1.19.12 1.74.28-.73 1.42-1.18 3.01-1.18 4.71l.01-.01zm1.42 15.98h18v-15.97c0-4.96-4.04-9-9.01-9s-9.01 4.04-9.01 9.01v15.97l.01-.01zm30.05 38.1v.01c-.3.87-1.23 1.36-2.08 1.07-.87-.28-1.35-1.21-1.07-2.08.85-2.67.32-5.72-1.7-7.96-2.02-2.23-4.99-3.08-7.74-2.5-.9.19-1.77-.38-1.96-1.27-.19-.89.38-1.77 1.27-1.96 3.86-.82 8.05.38 10.88 3.53 2.83 3.14 3.6 7.43 2.39 11.19l.01-.03zm-11.45-6.18c-.78.17-1.53-.31-1.69-1.09-.17-.77.32-1.52 1.09-1.68 1.88-.4 3.91.19 5.3 1.72 1.38 1.53 1.75 3.62 1.16 5.45-.24.75-1.04 1.16-1.79.92s-1.16-1.04-.91-1.79c.29-.89.1-1.91-.57-2.66-.68-.75-1.68-1.03-2.6-.84l.01-.02zm.56 2.67c.75 1.07.67 2.57-.02 4.31-.32.8.1.92.71 1.11 2.47.77 5.23 2.63 5.23 5.9 0 5.43-7.82 12.25-19.56 12.25-8.96 0-18.12-4.34-18.12-11.49 0-3.73 2.36-8.05 6.44-12.12 5.43-5.44 11.78-7.92 14.16-5.53 1.05 1.06 1.15 2.87.48 5.05-.36 1.09 1.02.49 1.02.49 4.4-1.84 8.24-1.95 9.64.07l.02-.03zm-1.5 11.21c-.47-4.69-6.64-7.92-13.79-7.21-7.15.71-12.57 5.09-12.11 9.78.46 4.7 6.63 7.93 13.78 7.22 7.15-.7 12.57-5.08 12.11-9.78l.01-.01zm-16.74 7.77c-3.44-1.1-4.89-4.5-3.39-7.56 1.48-3 5.32-4.69 8.72-3.81 3.52.91 5.32 4.24 3.88 7.46-1.47 3.31-5.66 5.07-9.22 3.92l.01-.01zm1.94-6.43c-1.11-.46-2.54.02-3.22 1.09-.69 1.08-.37 2.36.73 2.86 1.11.51 2.59.03 3.28-1.07.68-1.11.32-2.38-.8-2.86l.01-.02zm2.73-1.13c-.43-.17-.96.04-1.21.46s-.11.9.31 1.08c.44.17.99-.03 1.24-.45.24-.44.08-.92-.35-1.07v.02l.01-.03zm-2.19 44.88h-7.03c-.04-3.16 1.15-5.79 3.57-7.88 2.38-2.09 5.52-3.13 9.43-3.13 2.5 0 4.64.43 6.41 1.28 1.78.86 3.2 2.09 4.25 3.71 1.05 1.62 1.58 3.34 1.58 5.14 0 .98-.17 1.94-.5 2.88-.34.94-.87 1.9-1.61 2.87-.44.59-1.47 1.56-3.11 2.92-1.53 1.32-2.48 2.26-2.87 2.79-.39.54-.73 1.25-1 2.14-.28.89-.45 2.13-.53 3.73H26.7v-1.14c0-2.19.44-4.19 1.32-6 .88-1.8 2.29-3.51 4.24-5.11 1.87-1.53 3.01-2.58 3.4-3.15s.58-1.26.58-2.06c0-1.04-.48-1.93-1.44-2.66-.96-.73-2.24-1.09-3.84-1.09-1.64 0-2.99.44-4.04 1.33-1.05.89-1.59 2.05-1.59 3.47h.01l.04-.04zm4.98 20.25c1.32 0 2.45.41 3.37 1.23.92.82 1.37 1.82 1.37 3.01 0 1.19-.46 2.19-1.38 3.03s-2.02 1.25-3.31 1.25-2.38-.41-3.28-1.25c-.9-.83-1.35-1.84-1.35-3.02s.45-2.18 1.35-3c.9-.82 1.97-1.23 3.22-1.23l.01-.02zM22.71 9.83c-12.065 2.16-16.09 15.79-6.49 22.03.53.34.53.304-.26 2.66l-.674 2.015 2.43-1.304 2.43-1.29 1.293.323c1.35.34 3.08.58 4.23.58h.69l-.24-.917c-1.89-6.966 4.65-13.87 13.156-13.87h1.152l-.24-.83c-1.86-6.532-9.744-10.75-17.48-9.376v-.01zm-1.053 6.11c1.28.86 1.356 2.73.127 3.53-1.993 1.3-4.322-.992-2.98-2.947.587-.874 2.004-1.164 2.856-.584zm10.274 0c2.11 1.412.53 4.683-1.823 3.78-1.704-.65-1.908-2.993-.324-3.833.63-.335 1.604-.313 2.15.054h.005zm4.65 5.16c-5.97 1.083-10.12 5.62-9.88 10.83.308 6.98 8.485 11.792 16.336 9.634l.927-.248 1.96 1.05c1.072.59 1.974 1.016 2 .964.027-.068-.19-.816-.46-1.687-.627-1.937-.64-1.788.196-2.4 9.45-6.777 1.16-20.384-11.09-18.168l.016.02zm-.234 5.625c.527.35.804 1.226.58 1.866-.48 1.37-2.522 1.467-3.073.15-.623-1.513 1.11-2.92 2.498-2.013h-.003zm8.37.15c.827.79.688 2.13-.275 2.63-1.48.75-3.033-.767-2.266-2.2.5-.935 1.788-1.156 2.54-.44v.008z"/></svg>