<svg xmlns="http://www.w3.org/2000/svg" width="54" height="54" viewBox="0 0 54 54"><circle fill="#FFF" cx="27" cy="27" r="21"/><path fill="#f40" d="M38.944 33.594c-.068-.204-.498-.505-1.295-.903l-.92-.51c-.4-.21-.76-.41-1.09-.59-.33-.18-.63-.35-.92-.52-.05-.03-.19-.13-.43-.3-.24-.16-.44-.28-.607-.36-.166-.08-.327-.12-.486-.12-.23 0-.514.164-.855.487s-.653.678-.937 1.06-.588.73-.906 1.055c-.318.324-.58.486-.784.486-.104 0-.23-.03-.384-.087-.15-.057-.27-.106-.35-.146-.08-.04-.217-.12-.41-.236-.19-.12-.3-.19-.32-.2-1.56-.86-2.89-1.85-4.007-2.968-1.114-1.11-2.103-2.445-2.967-4.003-.01-.02-.075-.13-.194-.323-.115-.193-.195-.33-.234-.41-.04-.08-.083-.195-.14-.35-.055-.154-.084-.282-.084-.384 0-.205.16-.467.486-.785.32-.32.674-.62 1.054-.908.38-.284.73-.6 1.057-.94.323-.342.485-.625.485-.853 0-.16-.04-.32-.12-.486-.08-.165-.2-.367-.365-.605l-.297-.428c-.17-.286-.346-.59-.53-.91-.18-.327-.38-.69-.596-1.087-.22-.4-.39-.704-.51-.92-.4-.795-.7-1.227-.91-1.295-.08-.03-.2-.05-.355-.05-.31 0-.71.058-1.2.17-.496.115-.884.235-1.17.36-.567.238-1.17.93-1.806 2.08-.58 1.068-.87 2.124-.87 3.17 0 .305.02.603.06.894.04.29.11.615.213.98s.183.633.246.81c.063.175.18.49.35.945l.31.835c.394 1.114.866 2.107 1.41 2.983.9 1.454 2.123 2.957 3.673 4.508 1.55 1.554 3.054 2.778 4.507 3.676.88.55 1.87 1.02 2.986 1.42.104.03.38.133.835.304.45.17.77.287.94.35.18.064.448.146.81.247.367.108.69.18.98.22.29.04.59.06.898.06 1.048 0 2.1-.29 3.17-.87 1.15-.636 1.84-1.237 2.08-1.806.127-.28.246-.67.358-1.168.115-.493.17-.894.17-1.2 0-.16-.02-.28-.052-.36z"/></svg>