<svg xmlns="http://www.w3.org/2000/svg" width="54" height="54"><circle fill="#FFF" cx="27" cy="27" r="21"/><path fill="#F40" d="M39.64 19.67c-.903.4-1.877.67-2.898.79 1.042-.62 1.842-1.603 2.22-2.77-.975.573-2.056.99-3.205 1.216-.922-.975-2.233-1.583-3.684-1.583-2.79 0-5.05 2.243-5.05 5.01 0 .39.045.775.13 1.142-4.193-.21-7.913-2.205-10.403-5.233-.434.74-.684 1.6-.684 2.516 0 1.74.892 3.27 2.247 4.17-.827-.025-1.606-.25-2.286-.627v.066c0 2.427 1.74 4.45 4.048 4.912-.424.114-.87.174-1.33.174-.325 0-.642-.028-.95-.088.642 1.99 2.507 3.438 4.716 3.48-1.727 1.343-3.903 2.145-6.267 2.145-.408 0-.81-.025-1.205-.074 2.233 1.422 4.887 2.253 7.738 2.253 9.285 0 14.362-7.636 14.362-14.253 0-.217-.006-.434-.015-.648.987-.71 1.842-1.59 2.52-2.597z"/></svg>