<svg xmlns="http://www.w3.org/2000/svg" width="24" height="24" viewBox="96 61 24 24"><g fill="#CAD1DA"><path d="M107.986 72.983c1.52 0 2.815-.536 3.888-1.61 1.074-1.074 1.612-2.37 1.612-3.888 0-1.52-.538-2.815-1.612-3.89-1.073-1.074-2.37-1.61-3.888-1.61s-2.815.536-3.89 1.61c-1.073 1.074-1.61 2.37-1.61 3.89 0 1.518.537 2.814 1.61 3.888 1.076 1.074 2.372 1.61 3.89 1.61z"/><path d="M118.02 78.79c-.035-.48-.103-1.002-.202-1.56-.1-.56-.228-1.077-.38-1.554-.152-.478-.358-.944-.615-1.398-.258-.45-.554-.838-.89-1.16-.333-.318-.74-.574-1.223-.764-.482-.19-1.015-.288-1.598-.288-.085 0-.286.103-.602.308s-.67.436-1.066.688c-.397.254-.912.483-1.547.688s-1.272.307-1.913.307c-.64 0-1.277-.102-1.91-.307-.636-.205-1.15-.434-1.548-.688-.396-.252-.75-.482-1.066-.688s-.516-.308-.602-.308c-.582 0-1.114.096-1.597.288-.48.19-.89.445-1.22.765-.335.32-.63.704-.89 1.155-.26.454-.462.92-.615 1.398-.153.477-.28.995-.38 1.554-.1.557-.167 1.08-.2 1.56-.034.482-.05.98-.05 1.48 0 1.147.348 2.05 1.044 2.718.696.662 1.622.994 2.78.994h12.515c1.155 0 2.08-.333 2.778-.996.7-.667 1.05-1.57 1.05-2.718 0-.504-.017-1-.05-1.483z"/></g></svg>