<svg xmlns="http://www.w3.org/2000/svg" width="24" height="24" viewBox="20 20 24 24"><path fill="#CAD1DA" d="M39.905 32h-1.718v-4.813C38.187 23.77 35.417 21 32 21c-3.418 0-6.188 2.77-6.188 6.187V32h-1.72c-.57 0-1.03.462-1.03 1.03v8.938c0 .57.46 1.03 1.03 1.03h15.813c.57 0 1.03-.46 1.03-1.03V33.03c.002-.568-.46-1.03-1.03-1.03zm-6.875 5.9v2.005c0 .57-.46 1.03-1.03 1.03-.57 0-1.032-.46-1.032-1.03V37.9c-.614-.356-1.03-1.014-1.03-1.775 0-1.14.922-2.063 2.062-2.063 1.14 0 2.063.922 2.063 2.063 0 .762-.418 1.42-1.033 1.776zm3.094-5.9h-8.25v-4.813c0-2.278 1.846-4.125 4.125-4.125 2.276 0 4.122 1.847 4.122 4.125V32z"/></svg>